<svg id="Layer_1" data-name="Layer 1" xmlns="http://www.w3.org/2000/svg" viewBox="0 0 1000 1000"><defs><style>.cls-1{fill:#141414;}</style></defs><path class="cls-1" d="M458,747.73c2.13.91,3.59,2.09,5.06,2.09,50.92.17,101.83.14,152.74.38,10.48,0,10.62-6.52,10.61-14.1-.12-85.59,2.42-171.28-.87-256.75C622,388,578.26,318.79,496.62,275.48c-11.41-6.05-24.59-8.79-38.62-13.64ZM339.1,507.18c-38.15,0-76.48-2-114.44.85-19.23,1.46-39,9.45-56.42,18.51-42.81,22.26-63.82,58.76-61.3,107.4,2.51,48.36,28.28,80.08,72.14,98.69C231.8,755,287,746.42,345.53,748.61,237,693.36,243.2,555,339.1,507.18ZM671.26,377.1c39.44-16.22,69.32-5.56,98.31,17.18,29.22,22.93,70.81,19.61,97.18-4.46,28.84-26.31,35.35-66.83,15.89-98.88C861.26,255.73,819,240.81,781.12,256,726.83,277.87,694.51,320.19,671.26,377.1ZM308.06,258.37c-39.62-2.79-90.62,15-118.42,43.82-13.89,14.38-26.34,32-33.64,50.46-11.4,28.87,4.07,66.54,30.06,84.46,27.43,18.93,64.88,18,91.2-2.34,25.42-19.61,37.27-54.7,24.54-84.55C288.28,318.53,285.19,288.93,308.06,258.37Z"/><path d="M458,747.73V261.84c14,4.85,27.21,7.59,38.62,13.64C578.26,318.79,622,388,625.54,479.35c3.29,85.47.75,171.16.87,256.75,0,7.58-.13,14.15-10.61,14.1C564.89,750,514,750,463.06,749.82,461.59,749.82,460.13,748.64,458,747.73Z"/><path d="M339.1,507.18C243.2,555,237,693.36,345.53,748.61c-58.52-2.19-113.73,6.37-166.45-16-43.86-18.61-69.63-50.33-72.14-98.69-2.52-48.64,18.49-85.14,61.3-107.4,17.43-9.06,37.19-17,56.42-18.51C262.62,505.16,301,507.18,339.1,507.18Z"/><path d="M671.26,377.1c23.25-56.91,55.57-99.23,109.86-121.06,37.86-15.23,80.14-.31,101.52,34.9,19.46,32.05,13,72.57-15.89,98.88-26.37,24.07-68,27.39-97.18,4.46C740.58,371.54,710.7,360.88,671.26,377.1Z"/><path d="M308.06,258.37c-22.87,30.56-19.78,60.16-6.26,91.85,12.73,29.85.88,64.94-24.54,84.55-26.32,20.31-63.77,21.27-91.2,2.34-26-17.92-41.46-55.59-30.06-84.46,7.3-18.45,19.75-36.08,33.64-50.46C217.44,273.39,268.44,255.58,308.06,258.37Z"/></svg>

